<svg width="20" height="20" viewBox="0 0 20 20" fill="none" xmlns="http://www.w3.org/2000/svg">
<path fill-rule="evenodd" clip-rule="evenodd" d="M10 0.833336C7.81387 0.833336 6.04167 2.60554 6.04167 4.79167V5.15479C5.72446 5.21741 5.43126 5.3068 5.14968 5.43588C4.31181 5.81998 3.60251 6.43758 3.1068 7.21464C2.80677 7.68496 2.62874 8.21108 2.48888 8.8529C2.35186 9.48171 2.24298 10.2657 2.10446 11.263L2.09679 11.3182C1.91854 12.6016 1.77919 13.6049 1.73686 14.4131C1.69389 15.2336 1.74587 15.9174 1.99271 16.5451C2.39614 17.5711 3.14105 18.4266 4.10181 18.9674C4.68964 19.2982 5.35975 19.4438 6.17838 19.5141C6.98465 19.5833 7.99757 19.5833 9.29328 19.5833H10.7067C12.0024 19.5833 13.0153 19.5833 13.8216 19.5141C14.6402 19.4438 15.3104 19.2982 15.8982 18.9674C16.8589 18.4266 17.6039 17.5711 18.0073 16.5451C18.2541 15.9174 18.3061 15.2336 18.2631 14.4131C18.2208 13.6049 18.0815 12.6016 17.9032 11.3181L17.8955 11.263C17.757 10.2656 17.6481 9.4817 17.5111 8.8529C17.3713 8.21108 17.1932 7.68496 16.8932 7.21464C16.3975 6.43758 15.6882 5.81998 14.8503 5.43588C14.5687 5.3068 14.2755 5.2174 13.9583 5.15479V4.79167C13.9583 2.60554 12.1861 0.833336 10 0.833336ZM6.66667 9.58334C6.32149 9.58334 6.04167 9.30351 6.04167 8.95834V6.43802C5.90593 6.47564 5.78426 6.52006 5.67058 6.57218C5.05129 6.85607 4.52702 7.31256 4.16063 7.88691C3.9715 8.18339 3.83418 8.55016 3.71022 9.11904C3.58459 9.69555 3.48187 10.4321 3.33903 11.4605C3.15577 12.7799 3.02434 13.7302 2.98515 14.4784C2.94629 15.2205 3.00324 15.6991 3.15601 16.0877C3.4542 16.846 4.00478 17.4784 4.71491 17.8781C5.07873 18.0828 5.54499 18.2051 6.28535 18.2687C7.03186 18.3328 7.99117 18.3333 9.32325 18.3333H10.6767C12.0088 18.3333 12.9681 18.3328 13.7146 18.2687C14.455 18.2051 14.9213 18.0828 15.2851 17.8781C15.9952 17.4784 16.5458 16.846 16.844 16.0877C16.9968 15.6991 17.0537 15.2205 17.0148 14.4784C16.9757 13.7302 16.8442 12.7799 16.661 11.4605C16.5181 10.4321 16.4154 9.69555 16.2898 9.11904C16.1658 8.55016 16.0285 8.18339 15.8394 7.88691C15.473 7.31256 14.9487 6.85607 14.3294 6.57218C14.2157 6.52006 14.0941 6.47564 13.9583 6.43802V8.95834C13.9583 9.30351 13.6785 9.58334 13.3333 9.58334C12.9882 9.58334 12.7083 9.30351 12.7083 8.95834V6.27499C12.1801 6.25043 11.5282 6.25 10.6767 6.25H9.32325C8.4718 6.25 7.81988 6.25043 7.29167 6.27499V8.95834C7.29167 9.30351 7.01184 9.58334 6.66667 9.58334ZM10.7145 5C11.4977 5 12.1518 4.99999 12.7083 5.02388V4.79167C12.7083 3.2959 11.4958 2.08334 10 2.08334C8.50423 2.08334 7.29167 3.2959 7.29167 4.79167V5.02388C7.84823 4.99999 8.5023 5 9.2855 5H10.7145Z" fill="black"/>
</svg>
