<svg width="17" height="17" viewBox="0 0 17 17" fill="none" xmlns="http://www.w3.org/2000/svg">
<path d="M8.33331 0C10.5975 0 10.88 0.00833995 11.7683 0.05C12.6558 0.0916699 13.26 0.23084 13.7917 0.4375C14.3417 0.64917 14.805 0.93584 15.2683 1.39834C15.6921 1.81492 16.02 2.31883 16.2292 2.875C16.435 3.40584 16.575 4.01084 16.6167 4.89834C16.6558 5.78667 16.6667 6.06917 16.6667 8.33331C16.6667 10.5975 16.6583 10.88 16.6167 11.7683C16.575 12.6558 16.435 13.26 16.2292 13.7917C16.0206 14.3481 15.6926 14.8522 15.2683 15.2683C14.8516 15.6919 14.3478 16.0198 13.7917 16.2292C13.2608 16.435 12.6558 16.575 11.7683 16.6167C10.88 16.6558 10.5975 16.6667 8.33331 16.6667C6.06917 16.6667 5.78667 16.6583 4.89834 16.6167C4.01084 16.575 3.40667 16.435 2.875 16.2292C2.31861 16.0204 1.81461 15.6924 1.39834 15.2683C0.97451 14.8518 0.64661 14.3479 0.4375 13.7917C0.23084 13.2608 0.0916699 12.6558 0.05 11.7683C0.01084 10.88 0 10.5975 0 8.33331C0 6.06917 0.00833995 5.78667 0.05 4.89834C0.0916699 4.01 0.23084 3.40667 0.4375 2.875C0.64603 2.31849 0.97401 1.81444 1.39834 1.39834C1.81473 0.97436 2.31869 0.64644 2.875 0.4375C3.40667 0.23084 4.01 0.0916699 4.89834 0.05C5.78667 0.01084 6.06917 0 8.33331 0ZM8.33331 4.16667C7.22827 4.16667 6.16846 4.60566 5.38706 5.38706C4.60566 6.16846 4.16667 7.22827 4.16667 8.33331C4.16667 9.43841 4.60566 10.4982 5.38706 11.2796C6.16846 12.061 7.22827 12.5 8.33331 12.5C9.43841 12.5 10.4982 12.061 11.2796 11.2796C12.061 10.4982 12.5 9.43841 12.5 8.33331C12.5 7.22827 12.061 6.16846 11.2796 5.38706C10.4982 4.60566 9.43841 4.16667 8.33331 4.16667ZM13.75 3.95834C13.75 3.68207 13.6402 3.41712 13.4449 3.22177C13.2495 3.02642 12.9846 2.91667 12.7083 2.91667C12.4321 2.91667 12.1671 3.02642 11.9718 3.22177C11.7764 3.41712 11.6667 3.68207 11.6667 3.95834C11.6667 4.2346 11.7764 4.49955 11.9718 4.69491C12.1671 4.89026 12.4321 5 12.7083 5C12.9846 5 13.2495 4.89026 13.4449 4.69491C13.6402 4.49955 13.75 4.2346 13.75 3.95834ZM8.33331 5.83334C8.99641 5.83334 9.63231 6.09673 10.1011 6.56557C10.5699 7.03441 10.8333 7.67029 10.8333 8.33331C10.8333 8.99641 10.5699 9.63231 10.1011 10.1011C9.63231 10.5699 8.99641 10.8333 8.33331 10.8333C7.67029 10.8333 7.03441 10.5699 6.56557 10.1011C6.09673 9.63231 5.83334 8.99641 5.83334 8.33331C5.83334 7.67029 6.09673 7.03441 6.56557 6.56557C7.03441 6.09673 7.67029 5.83334 8.33331 5.83334Z" fill="black"/>
</svg>
