<svg width="18" height="20" viewBox="0 0 18 20" fill="none" xmlns="http://www.w3.org/2000/svg">
<path d="M1.41681 17.2433C2.48348 18.5278 4.46748 18.5278 8.43726 18.5278H9.07726C13.047 18.5278 15.0319 18.5278 16.0986 17.2433M1.41681 17.2433C0.350147 15.958 0.716369 14.0078 1.44792 10.1055C1.96792 7.33221 2.22748 5.94465 3.21504 5.1251M16.0986 17.2433C17.1653 15.958 16.799 14.0078 16.0675 10.1055C15.5475 7.33221 15.287 5.94465 14.2995 5.1251M14.2995 5.1251C13.3128 4.30554 11.9004 4.30554 9.07815 4.30554H8.43637C5.61415 4.30554 4.20259 4.30554 3.21504 5.1251" stroke="black" stroke-width="1.5"/>
<path d="M6.09059 4.30556V3.41667C6.09059 2.70942 6.37154 2.03115 6.87164 1.53105C7.37174 1.03095 8.05001 0.75 8.75726 0.75C9.4645 0.75 10.1428 1.03095 10.6429 1.53105C11.143 2.03115 11.4239 2.70942 11.4239 3.41667V4.30556" stroke="black" stroke-width="1.5" stroke-linecap="round"/>
</svg>
