<svg width="31" height="24" viewBox="0 0 31 24" fill="none" xmlns="http://www.w3.org/2000/svg">
<path d="M14.8034 9.78596C14.9619 9.92336 14.9806 10.0146 15.0159 10.2221C14.95 10.6539 14.5913 10.8965 14.2726 11.1672C14.0615 11.3524 13.8662 11.5535 13.6701 11.7544C13.6974 11.8151 13.7248 11.8758 13.753 11.9384C14.6289 13.9378 14.6167 16.2052 13.8451 18.2368C13.2773 19.6471 12.1731 20.6335 10.9072 21.4149C10.8184 21.47 10.7305 21.5263 10.6427 21.5828C7.9032 23.2816 4.26198 23.8241 1.09168 23.9748C1.02356 23.9785 0.955431 23.9822 0.885241 23.986C0.821883 23.9883 0.758525 23.9906 0.693247 23.993C0.609759 23.9965 0.609759 23.9965 0.524583 24C0.316961 23.9765 0.158946 23.8921 0.0105517 23.7437C-0.024706 23.1048 0.031759 22.4816 0.129849 21.8499C0.139525 21.7858 0.139525 21.7858 0.149397 21.7204C0.616859 18.647 1.44442 15.3995 3.35087 12.8877C3.394 12.8302 3.43714 12.7727 3.48158 12.7134C4.07151 11.9616 4.72496 11.33 5.55786 10.8596C5.60853 10.8305 5.6592 10.8013 5.71141 10.7713C7.25445 9.94242 9.42271 9.80828 11.1052 10.2631C11.1446 10.2734 11.1839 10.2836 11.2245 10.2942C11.7627 10.4365 12.2379 10.6355 12.7222 10.9097C12.8836 10.9933 12.8836 10.9933 13.0156 10.9521C13.1838 10.8198 13.3319 10.6706 13.4799 10.5167C14.3242 9.65618 14.3242 9.65618 14.8034 9.78596ZM4.77196 12.6982C2.26472 15.3129 1.31042 19.4702 0.964928 22.9683C1.59874 22.9805 2.21402 22.9523 2.84386 22.8713C2.88552 22.8661 2.92718 22.8609 2.9701 22.8556C5.86035 22.4916 9.05819 21.8476 11.3438 19.9262C11.3762 19.899 11.4087 19.8718 11.4422 19.8438C12.4511 18.9853 13.0082 17.9841 13.3122 16.7052C13.3269 16.6438 13.3415 16.5825 13.3567 16.5192C13.5849 15.3327 13.5892 13.517 12.8946 12.4701C12.553 12.7115 12.2567 12.975 11.9663 13.2754C11.8919 13.352 11.8172 13.4284 11.7424 13.5047C11.6883 13.5606 11.6883 13.5606 11.6331 13.6177C11.5247 13.7208 11.4116 13.802 11.2899 13.8887C11.1155 14.0374 11.0743 14.1422 11.0511 14.3696C11.0475 14.4919 11.0458 14.6144 11.0455 14.7368C11.0415 14.8516 11.0374 14.9664 11.0331 15.0812C11.0271 15.2503 11.0231 15.4194 11.0189 15.5885C11.0134 15.813 11.0071 16.0374 11.0008 16.2618C10.9989 16.3274 10.9989 16.3274 10.9971 16.3944C10.9869 16.7455 10.9739 17.0963 10.9561 17.4471C10.9539 17.4917 10.9518 17.5364 10.9496 17.5824C10.9399 17.7606 10.9234 17.9068 10.8666 18.0771C10.3553 18.1538 10.3553 18.1538 10.1508 18.0771C10.0997 17.9002 10.0839 17.7434 10.0844 17.5595C10.0844 17.5046 10.0844 17.4497 10.0844 17.3931C10.0847 17.3343 10.085 17.2756 10.0853 17.215C10.0855 17.1241 10.0855 17.1241 10.0856 17.0315C10.0859 16.8382 10.0867 16.6449 10.0874 16.4517C10.0877 16.3206 10.088 16.1895 10.0882 16.0584C10.0889 15.7371 10.0899 15.4159 10.0911 15.0947C9.76722 15.3703 9.76722 15.3703 9.45179 15.6555C9.41465 15.6901 9.37752 15.7248 9.33925 15.7605C9.30196 15.7954 9.26467 15.8304 9.22625 15.8664C9.18895 15.9011 9.15166 15.9358 9.11324 15.9716C8.92445 16.1481 8.73869 16.3268 8.5566 16.5102C8.41907 16.6486 8.27975 16.7809 8.13021 16.9065C7.95068 17.0611 7.7821 17.2225 7.61574 17.3911C7.41117 17.5982 7.20168 17.7948 6.97987 17.9832C6.90951 18.0434 6.84052 18.1053 6.77343 18.1691C6.62476 18.307 6.52724 18.3726 6.32584 18.4089C6.11102 18.3669 6.03915 18.3171 5.91575 18.1367C5.87475 17.9727 5.87475 17.9727 5.91575 17.7789C6.20085 17.3391 6.66059 16.9926 7.04908 16.6455C6.85356 16.5152 6.78847 16.5103 6.56094 16.5057C6.50069 16.504 6.44045 16.5022 6.37838 16.5004C6.31552 16.4991 6.25266 16.4978 6.1879 16.4964C6.0637 16.4938 5.93951 16.4907 5.81533 16.4871C5.76024 16.486 5.70516 16.4849 5.6484 16.4837C5.49092 16.4658 5.39274 16.4322 5.25962 16.3473C5.17489 16.1778 5.18121 16.0577 5.19997 15.8701C5.28346 15.7394 5.28346 15.7394 5.43857 15.6315C5.63662 15.604 5.83096 15.6167 6.03016 15.6271C6.14926 15.6304 6.26836 15.6336 6.38747 15.6368C6.57457 15.643 6.76155 15.6501 6.94855 15.6589C7.6587 15.7169 7.6587 15.7169 8.31908 15.518C8.45246 15.3839 8.55383 15.2508 8.65959 15.0947C8.73698 15.0227 8.81628 14.9527 8.89818 14.8859C9.07542 14.734 9.24124 14.5749 9.40519 14.4087C9.56793 14.2438 9.73237 14.0858 9.90848 13.9353C10.0977 13.7731 10.2739 13.6018 10.449 13.4245C10.6603 13.2106 10.8771 13.01 11.1054 12.8148C11.2874 12.6527 11.4558 12.4779 11.6269 12.3045C11.8226 12.1115 12.0289 11.932 12.2385 11.7544C10.2223 10.0783 6.42795 11.0195 4.77196 12.6982Z" fill="black"/>
<path d="M26.3021 8.14529C26.7732 8.5537 27.1938 8.98783 27.5682 9.48773C27.6151 9.54932 27.662 9.61091 27.7103 9.67437C29.0041 11.4064 29.8192 13.454 30.4313 15.5122C30.4537 15.5857 30.4761 15.6592 30.4991 15.735C30.5428 15.9002 30.5699 16.0395 30.573 16.2094C30.5747 16.2527 30.5764 16.296 30.5781 16.3406C30.5356 16.5352 30.4768 16.5904 30.312 16.7052C30.1044 16.7603 29.8953 16.7831 29.682 16.8059C29.6204 16.813 29.5588 16.8202 29.4954 16.8276C28.933 16.8905 28.3724 16.9311 27.8068 16.9438C27.7484 16.9451 27.6901 16.9464 27.63 16.9478C25.0173 16.9963 21.9112 16.7477 19.8945 14.884C18.7268 13.7513 18.2866 12.1195 18.2518 10.539C18.2563 10.0242 18.3569 9.51692 18.442 9.01055C18.3717 8.9651 18.3717 8.9651 18.3001 8.91874C18.1072 8.79241 17.9164 8.66362 17.7262 8.53336C17.6798 8.50214 17.6334 8.47092 17.5857 8.43876C17.4322 8.32419 17.3285 8.24275 17.2732 8.0557C17.257 7.83533 17.2941 7.71632 17.4317 7.54543C17.6667 7.43041 17.7701 7.45782 18.0244 7.51933C18.2117 7.61638 18.3838 7.73187 18.5575 7.85113C18.604 7.88215 18.6505 7.91318 18.6984 7.94515C18.8122 8.02126 18.9255 8.09803 19.0384 8.17547C19.0698 8.1529 19.1012 8.13032 19.1335 8.10707C21.2743 6.58732 24.2424 6.41092 26.3021 8.14529ZM19.9332 8.7123C20.0351 9.01817 20.3303 9.14776 20.5893 9.3237C20.6443 9.36322 20.6993 9.40274 20.7559 9.44346C20.8104 9.48053 20.8649 9.51759 20.9211 9.55577C20.9704 9.58993 21.0197 9.62409 21.0704 9.65928C21.3216 9.7555 21.5221 9.71404 21.7823 9.66668C21.8242 9.65922 21.8662 9.65175 21.9095 9.64406C22.0366 9.62009 22.1631 9.59402 22.2897 9.56742C22.384 9.54829 22.4782 9.52918 22.5724 9.5101C22.7184 9.48029 22.8643 9.45026 23.0102 9.41976C23.1526 9.39007 23.2953 9.36125 23.438 9.33256C23.4811 9.3233 23.5242 9.31405 23.5687 9.30451C23.844 9.24994 24.0739 9.24069 24.3472 9.30879C24.486 9.51704 24.4965 9.6006 24.4665 9.84563C24.2982 10.0558 24.1633 10.1207 23.9019 10.1707C23.8082 10.1893 23.8082 10.1893 23.7126 10.2083C23.6476 10.2202 23.5827 10.2322 23.5158 10.2445C23.4511 10.2572 23.3864 10.2698 23.3197 10.2829C23.1992 10.3063 23.0785 10.3295 22.9578 10.3521C22.8043 10.381 22.6511 10.4112 22.4981 10.4421C22.5672 10.6495 22.6074 10.6706 22.7851 10.7856C22.8338 10.8175 22.8826 10.8494 22.9328 10.8823C22.9862 10.9167 23.0395 10.951 23.0945 10.9864C23.208 11.0607 23.3214 11.1351 23.4347 11.2096C23.4952 11.2492 23.5557 11.2888 23.618 11.3296C23.9236 11.5307 24.2271 11.7348 24.53 11.9399C24.6297 12.0073 24.7296 12.0744 24.8295 12.1414C24.9206 12.2031 24.9206 12.2031 25.0135 12.2661C25.0677 12.3026 25.1219 12.3391 25.1778 12.3768C25.3015 12.4702 25.3015 12.4702 25.3612 12.5895C25.3844 12.8031 25.3872 12.9093 25.2643 13.089C25.0798 13.2152 24.9857 13.208 24.7647 13.1859C24.5925 13.0946 24.5925 13.0946 24.4254 12.9772C24.1989 12.8077 24.1989 12.8077 23.9296 12.7684C23.9425 12.8332 23.9425 12.8332 23.9557 12.8993C24.1045 13.6742 24.1045 13.6742 23.9781 13.9204C23.8392 14.0496 23.7613 14.0762 23.5717 14.0807C23.4207 14.0182 23.4207 14.0182 23.2735 13.9017C23.2154 13.7525 23.1782 13.6277 23.1467 13.473C23.1324 13.4104 23.1324 13.4104 23.1177 13.3465C23.0682 13.1256 23.0265 12.9038 22.9888 12.6806C22.9814 12.6378 22.974 12.595 22.9664 12.5509C22.9464 12.4313 22.9282 12.3114 22.91 12.1915C22.8195 11.8592 22.5767 11.7175 22.2984 11.534C22.2028 11.4706 22.2028 11.4706 22.1053 11.406C22.0361 11.3606 21.967 11.3152 21.8978 11.2697C21.8267 11.2227 21.7556 11.1756 21.6845 11.1286C21.5355 11.03 21.3864 10.9315 21.2373 10.8331C20.8937 10.6062 20.5513 10.3774 20.2089 10.1488C20.0366 10.0338 19.8643 9.919 19.692 9.80415C19.5934 9.73844 19.4949 9.67274 19.3963 9.60703C19.035 10.149 19.196 11.0472 19.308 11.6593C19.5371 12.7902 20.0321 13.832 20.9807 14.5355C23.4592 16.156 26.6433 16.1027 29.4769 15.8701C29.4024 15.4373 29.2879 15.0312 29.1414 14.6175C29.1204 14.5578 29.0994 14.4981 29.0778 14.4366C28.8969 13.9311 28.6904 13.4413 28.4626 12.9554C28.4026 12.8267 28.3442 12.6973 28.2861 12.5678C27.6744 11.2181 26.7992 9.73978 25.5998 8.8316C25.5135 8.76551 25.5135 8.76551 25.4255 8.69809C23.7922 7.48658 21.6151 7.69477 19.9332 8.7123Z" fill="black"/>
<path d="M16.8799 1.3122C16.9922 1.41348 17.0621 1.4789 17.1297 1.61417C17.3787 1.58726 17.5854 1.51733 17.8157 1.42404C18.0274 1.34521 18.1247 1.31355 18.3525 1.34203C18.5342 1.45558 18.6032 1.5333 18.6806 1.73347C18.6734 1.91357 18.6628 2.03599 18.5526 2.18153C18.3981 2.3055 18.2358 2.36169 18.0505 2.43061C17.9471 2.46971 17.9471 2.46971 17.8415 2.5096C17.6665 2.56855 17.6665 2.56855 17.5472 2.56855C17.55 2.62706 17.5528 2.68558 17.5556 2.74586C17.5969 4.01142 17.1283 5.18064 16.3224 6.15049C15.394 7.13899 14.1099 7.49013 12.7868 7.53242C11.0929 7.56647 9.47717 7.26388 7.86182 6.76631C7.77991 6.74154 7.77991 6.74154 7.69635 6.71628C7.19193 6.55381 7.19193 6.55381 7.0491 6.32641C6.98721 5.949 7.13184 5.69506 7.31007 5.37576C7.33698 5.32631 7.36389 5.27686 7.39162 5.22591C7.81691 4.45344 8.28553 3.73234 8.83856 3.04574C8.882 2.99076 8.92545 2.93578 8.97021 2.87914C9.99257 1.60257 11.3168 0.306414 12.999 0.0260317C14.4461 -0.12309 15.7847 0.376772 16.8799 1.3122ZM10.5684 2.56855C10.5205 2.61638 10.4726 2.6642 10.4232 2.71348C9.51174 3.62633 8.74973 4.6883 8.18243 5.84922C9.00957 6.10201 9.8334 6.30844 10.6877 6.4457C10.7313 6.45278 10.7749 6.45985 10.8199 6.46714C12.1613 6.67596 13.8165 6.73782 15.0131 5.99461C15.8424 5.38534 16.333 4.52609 16.5731 3.53784C16.6003 3.35333 16.5965 3.17224 16.5929 2.98609C16.5133 3.01206 16.4338 3.03819 16.3543 3.06438C16.31 3.07891 16.2657 3.09344 16.2201 3.10842C16.1659 3.1271 16.1118 3.14578 16.056 3.16503C16.0189 3.17465 15.9817 3.18427 15.9435 3.19418C15.6911 3.26896 15.5987 3.31323 15.4509 3.54215C15.4174 3.62265 15.3859 3.70392 15.3559 3.78575C15.3297 3.85027 15.3297 3.85027 15.303 3.91609C15.2479 4.05286 15.1952 4.19041 15.1427 4.32818C15.0886 4.46574 15.0341 4.60308 14.9791 4.74027C14.9451 4.82545 14.9118 4.91089 14.8791 4.99658C14.7307 5.37652 14.7307 5.37652 14.5648 5.49133C14.3043 5.51458 14.1887 5.51896 13.9683 5.37203C13.8749 5.03166 13.9344 4.83519 14.0839 4.52204C14.2225 4.24439 14.2225 4.24439 14.2666 3.94046C14.064 3.97615 13.8838 4.02709 13.6938 4.10544C13.6412 4.12694 13.5886 4.14843 13.5345 4.17057C13.4784 4.19375 13.4224 4.21692 13.3646 4.2408C13.2449 4.28956 13.1252 4.3383 13.0055 4.38701C12.8174 4.46387 12.6294 4.54091 12.4416 4.61834C12.2599 4.69312 12.0778 4.76712 11.8958 4.84102C11.8398 4.86432 11.7839 4.88761 11.7263 4.91162C11.2234 5.11472 11.2234 5.11472 10.9263 5.07379C10.7846 4.97686 10.7846 4.97686 10.6877 4.83519C10.6578 4.65625 10.6578 4.65625 10.6877 4.4773C10.894 4.19215 11.2208 4.105 11.5377 3.9852C11.5935 3.96352 11.6493 3.94184 11.7068 3.91949C11.8441 3.86627 11.9815 3.81364 12.1192 3.76152C12.0102 3.64708 11.9215 3.57138 11.7837 3.48937C11.642 3.40363 11.642 3.40363 11.5824 3.28433C11.5592 3.07068 11.5564 2.96445 11.6793 2.78478C11.8678 2.65585 11.9514 2.66442 12.1789 2.68785C12.4127 2.77302 12.6335 2.8863 12.8569 2.99541C12.9026 3.01694 12.9483 3.03847 12.9953 3.06065C13.0361 3.08064 13.077 3.10063 13.119 3.12123C13.5123 3.25027 13.827 3.09762 14.1892 2.94741C14.244 2.92519 14.2989 2.90296 14.3553 2.88006C14.4708 2.83312 14.5861 2.78588 14.7012 2.73835C14.8779 2.6655 15.055 2.59365 15.2321 2.52195C15.3443 2.47618 15.4565 2.43036 15.5686 2.38448C15.6216 2.36291 15.6747 2.34135 15.7294 2.31913C15.8029 2.28869 15.8029 2.28869 15.8778 2.25764C15.921 2.23989 15.9642 2.22214 16.0086 2.20385C16.1268 2.15263 16.1268 2.15263 16.235 2.03171C14.3049 0.486882 12.2324 0.807942 10.5684 2.56855Z" fill="black"/>
<path d="M4.96137 18.9719C5.12337 19.087 5.18486 19.1712 5.25588 19.3559C5.26201 19.6071 5.14563 19.7364 4.97977 19.9165C4.63182 20.2724 4.63182 20.2724 4.37607 20.3065C4.18594 20.2842 4.18594 20.2842 4.01445 20.1574C3.88769 19.9859 3.88769 19.9859 3.84296 19.8181C3.96231 19.3109 4.4451 18.9074 4.96137 18.9719Z" fill="black"/>
<path d="M26.5541 13.2457C26.8029 13.3888 26.9912 13.5434 27.1506 13.7825C27.1398 13.9852 27.1305 14.1408 27.0164 14.3119C26.8699 14.4061 26.7905 14.4347 26.6138 14.4387C26.2702 14.3271 26.0255 14.1501 25.8384 13.8422C25.8345 13.6127 25.8461 13.4865 25.9949 13.3091C26.203 13.216 26.3273 13.2117 26.5541 13.2457Z" fill="black"/>
</svg>
