<svg width="20" height="20" viewBox="0 0 20 20" fill="none" xmlns="http://www.w3.org/2000/svg">
<path d="M10 18.3333C14.6025 18.3333 18.3333 14.6025 18.3333 10C18.3333 5.3975 14.6025 1.66667 10 1.66667C5.39751 1.66667 1.66667 5.3975 1.66667 10C1.66667 13.3383 3.63001 16.2183 6.465 17.5483L8.37334 8.57667C8.42223 8.36348 8.55298 8.17806 8.73736 8.06041C8.92175 7.94277 9.145 7.90234 9.35894 7.94784C9.57288 7.99334 9.76035 8.12112 9.88091 8.30362C10.0015 8.48612 10.0454 8.7087 10.0033 8.92333C9.775 10 9.57501 10.4167 9.58417 10.9167C9.59834 11.7 9.81167 12.1183 10.0183 12.335C10.2292 12.5558 10.5333 12.675 10.9308 12.6683C11.3367 12.66 11.7958 12.5175 12.2025 12.2608C12.9933 11.7642 13.3333 10.9125 13.3333 10C13.3328 9.5048 13.2219 9.01595 13.0088 8.56897C12.7956 8.12199 12.4856 7.72812 12.1011 7.41597C11.7167 7.10383 11.2675 6.88127 10.7863 6.76445C10.3051 6.64764 9.8039 6.63951 9.31914 6.74066C8.83438 6.84181 8.37825 7.04969 7.9839 7.3492C7.58955 7.64872 7.26688 8.03233 7.03936 8.47216C6.81183 8.91199 6.68516 9.397 6.66855 9.89191C6.65194 10.3868 6.74581 10.8792 6.94334 11.3333C7.02387 11.5344 7.02297 11.7589 6.94082 11.9593C6.85867 12.1597 6.70173 12.3202 6.50325 12.4069C6.30477 12.4936 6.08034 12.4996 5.87751 12.4236C5.67469 12.3477 5.5094 12.1957 5.41667 12C5.08494 11.2391 4.94785 10.4076 5.01778 9.58051C5.08771 8.7534 5.36245 7.95672 5.81722 7.26233C6.272 6.56794 6.89249 5.9977 7.62272 5.60304C8.35295 5.20839 9.16995 5.00174 10 5.00174C10.8301 5.00174 11.6471 5.20839 12.3773 5.60304C13.1075 5.9977 13.728 6.56794 14.1828 7.26233C14.6376 7.95672 14.9123 8.7534 14.9822 9.58051C15.0522 10.4076 14.9151 11.2391 14.5833 12C14.2767 12.7067 13.7167 13.2783 13.09 13.6725C12.4608 14.0683 11.7092 14.3217 10.9608 14.335C10.2783 14.3475 9.5675 14.1583 8.995 13.6617L8.05 18.105C8.675 18.255 9.32834 18.3342 9.99917 18.3342L10 18.3333Z" fill="black"/>
</svg>
