<svg width="24" height="24" viewBox="0 0 24 24" fill="none" xmlns="http://www.w3.org/2000/svg">
<path d="M14.0449 0.18546C14.0897 0.193128 14.1344 0.200796 14.1806 0.208696C17.3534 0.775915 20.115 2.67843 21.9455 5.30216C22.9565 6.78923 23.5623 8.47075 23.8577 10.2365C23.864 10.2737 23.8704 10.3109 23.8769 10.3493C24.0683 11.5428 24.0152 12.8609 23.8101 14.0473C23.8024 14.092 23.7947 14.1368 23.7868 14.1829C23.4449 16.0959 22.614 17.8527 21.4283 19.3824C21.3962 19.4239 21.3641 19.4653 21.331 19.508C20.8756 20.0796 20.3703 20.6289 19.8087 21.0973C19.7701 21.1296 19.7701 21.1296 19.7307 21.1627C17.9989 22.6055 15.9767 23.4813 13.7591 23.8601C13.6992 23.8705 13.6992 23.8705 13.6381 23.8811C12.4506 24.0755 11.1286 24.0165 9.94826 23.8125C9.90349 23.8048 9.85872 23.7971 9.81259 23.7892C7.89968 23.4473 6.14283 22.6164 4.61313 21.4307C4.57168 21.3986 4.53024 21.3665 4.48753 21.3334C3.91594 20.878 3.36664 20.3727 2.89827 19.8111C2.8659 19.7725 2.8659 19.7725 2.83289 19.7331C1.46958 18.0968 0.550087 16.148 0.183068 14.0473C0.171474 13.9833 0.171474 13.9833 0.159645 13.918C-0.0642132 12.6331 -0.049216 11.2327 0.183068 9.95065C0.190736 9.90677 0.198403 9.86288 0.206304 9.81766C0.777541 6.64265 2.67239 3.8831 5.29977 2.05003C6.78684 1.03906 8.46836 0.43328 10.2341 0.137825C10.2713 0.1315 10.3085 0.125175 10.3469 0.118659C11.5404 -0.0727746 12.8585 -0.0196321 14.0449 0.18546ZM5.47056 2.9483C5.4432 2.96818 5.41584 2.98807 5.38764 3.00856C4.97549 3.30964 4.59973 3.64276 4.23205 3.99627C4.206 4.02102 4.17995 4.04578 4.15311 4.07128C3.75851 4.44746 3.41337 4.84471 3.08881 5.28242C3.06862 5.30923 3.04844 5.33605 3.02764 5.36368C1.86283 6.91527 1.14599 8.74343 0.897594 10.6652C0.893104 10.6986 0.888614 10.7319 0.883987 10.7663C0.543319 13.6498 1.43749 16.5924 3.2079 18.8703C3.45497 19.1822 3.71863 19.4763 3.99388 19.7635C4.01782 19.7887 4.04176 19.814 4.06642 19.84C4.44329 20.2355 4.84141 20.5815 5.28002 20.9067C5.30684 20.9269 5.33366 20.9471 5.36129 20.9679C7.64954 22.6857 10.5955 23.4543 13.4346 23.092C15.8372 22.7428 18.0119 21.6783 19.7611 20.0017C19.7863 19.9777 19.8116 19.9538 19.8376 19.9291C20.2331 19.5522 20.5791 19.1541 20.9043 18.7155C20.9346 18.6753 20.9346 18.6753 20.9655 18.6342C22.1419 17.0673 22.856 15.2267 23.0956 13.2851C23.1 13.2507 23.1045 13.2162 23.1092 13.1807C23.4442 10.3089 22.5456 7.39466 20.7852 5.1276C20.5382 4.81568 20.2745 4.52159 19.9993 4.23444C19.9634 4.19659 19.9634 4.19659 19.9267 4.15797C19.5499 3.76243 19.1517 3.41643 18.7131 3.0912C18.6863 3.07101 18.6595 3.05083 18.6319 3.03003C17.0803 1.86522 15.2521 1.14838 13.3304 0.899986C13.297 0.895496 13.2636 0.891006 13.2292 0.886379C10.5172 0.565972 7.6666 1.33465 5.47056 2.9483Z" fill="black"/>
<path d="M6.18507 15.4288C6.21639 15.4929 6.21639 15.4929 6.24834 15.5583C6.77009 16.597 7.53671 17.4713 8.51919 18.0963C8.57028 18.1294 8.62137 18.1625 8.67401 18.1966C10.1262 19.082 11.9001 19.3199 13.5451 18.9251C14.1145 18.78 14.6275 18.5713 15.1405 18.2869C15.1919 18.2594 15.2433 18.2319 15.2962 18.2035C15.6926 17.9837 16.0483 17.7183 16.3643 17.3926C16.4743 17.2865 16.4743 17.2865 16.5695 17.2865C16.5872 17.2457 16.5872 17.2457 16.6053 17.2041C16.6741 17.0791 16.7561 16.9932 16.8553 16.8906C17.2493 16.4604 17.57 15.9611 17.808 15.4288C17.9962 15.4587 18.151 15.5176 18.3231 15.5985C18.3928 15.631 18.3928 15.631 18.464 15.6642C18.499 15.6808 18.5341 15.6974 18.5702 15.7146C18.1058 17.2149 16.7149 18.4393 15.3757 19.1532C13.8559 19.9403 12.1013 20.1742 10.4246 19.8112C10.3854 19.8028 10.3463 19.7943 10.3059 19.7856C9.3138 19.56 8.35924 19.1167 7.56649 18.4774C7.52099 18.4423 7.47549 18.4072 7.42861 18.371C6.54977 17.6777 5.89749 16.8206 5.42291 15.8099C5.53581 15.6832 5.65251 15.614 5.80399 15.5389C5.86589 15.5077 5.86589 15.5077 5.92904 15.4758C6.04217 15.4288 6.04217 15.4288 6.18507 15.4288Z" fill="black"/>
<path d="M9.17956 8.76478C9.85668 9.34531 10.113 10.0394 10.1864 10.9033C10.0524 10.9046 9.91847 10.9056 9.78449 10.9063C9.74627 10.9067 9.70804 10.9071 9.66866 10.9075C9.5713 10.9079 9.47394 10.9058 9.37661 10.9033C9.29611 10.8228 9.30941 10.7099 9.29623 10.5997C9.24273 10.2604 9.11514 9.92656 8.86733 9.67989C8.80499 9.61719 8.80499 9.61719 8.80499 9.52192C8.77705 9.50859 8.74911 9.49527 8.72033 9.48154C8.62194 9.43053 8.53567 9.37357 8.44475 9.31054C8.03061 9.05083 7.55365 8.97703 7.07896 9.0785C6.74584 9.17023 6.48398 9.2834 6.2327 9.52192C6.20341 9.5493 6.17412 9.57669 6.14394 9.60491C5.79621 9.96381 5.6381 10.4101 5.61344 10.9033C5.34621 10.9033 5.07898 10.9033 4.80364 10.9033C4.76456 10.1706 5.01172 9.59125 5.47947 9.03663C6.46285 7.98561 8.04385 7.92965 9.17956 8.76478Z" fill="black"/>
<path d="M18.22 8.76149C18.7305 9.19611 19.0874 9.75466 19.1895 10.427C19.1953 10.5862 19.1916 10.7441 19.1895 10.9034C18.9222 10.9034 18.655 10.9034 18.3797 10.9034C18.3649 10.7796 18.3649 10.7796 18.3499 10.6533C18.2684 10.1703 18.0599 9.72845 17.6651 9.42671C17.2539 9.14663 16.7836 8.98197 16.2837 9.04563C15.7547 9.15521 15.3271 9.36287 15.0006 9.80183C14.7791 10.1454 14.6982 10.5075 14.6165 10.9034C14.3493 10.9034 14.082 10.9034 13.8067 10.9034C13.8842 10.0863 14.1004 9.41616 14.7153 8.83536C15.7299 7.99981 17.1796 7.962 18.22 8.76149Z" fill="black"/>
</svg>
