<svg width="12" height="14" viewBox="0 0 12 14" fill="none" xmlns="http://www.w3.org/2000/svg">
<path d="M12 2.11938L6 0L0 2.11938V7C0 9.49905 1.5204 11.246 2.9376 12.3305C3.79325 12.9787 4.73173 13.5073 5.7276 13.9019C5.7956 13.9277 5.864 13.9524 5.9328 13.9758L6 14L6.0684 13.9758C6.19959 13.9298 6.32963 13.8805 6.4584 13.828C7.38584 13.4424 8.26088 12.9392 9.0624 12.3305C10.4802 11.246 12 9.49905 12 7V2.11938ZM5.4006 9.06791L2.856 6.49862L3.7044 5.64178L5.4012 7.35485L8.7954 3.92933L9.6444 4.78555L5.4006 9.06791Z" fill="#049B48"/>
</svg>
