<svg width="21" height="21" viewBox="0 0 21 21" fill="none" xmlns="http://www.w3.org/2000/svg">
<path d="M20.4873 10.2428V10.2377C20.4873 7.20641 19.1676 4.48417 17.0719 2.61214L17.0616 2.60361C17.0357 2.57573 17.0068 2.55082 16.9754 2.52934L16.9737 2.52849C15.1123 0.894432 12.7188 -0.00457365 10.2419 1.74984e-05C7.65371 1.74984e-05 5.29084 0.961212 3.48967 2.54727L3.50076 2.53788C3.47912 2.55442 3.45911 2.573 3.44101 2.59336C2.35824 3.5522 1.49154 4.73099 0.898323 6.05002C0.305105 7.36905 -0.00109554 8.79907 2.94516e-06 10.2454C2.94516e-06 13.2758 1.31802 15.998 3.41199 17.8709L3.42223 17.8794C3.44947 17.9101 3.47979 17.9378 3.51272 17.9622L3.51442 17.9631C5.37521 19.5949 7.76697 20.4926 10.2419 20.4881C12.7285 20.492 15.1305 19.5859 16.995 17.9409L16.9839 17.9503C18.0855 16.9925 18.9685 15.8094 19.5733 14.4808C20.178 13.1523 20.4902 11.7093 20.489 10.2496V10.2437L20.4873 10.2428ZM16.6783 16.9054C16.1707 16.4952 15.625 16.1345 15.0488 15.8281L14.9933 15.8008C15.5165 14.2924 15.8315 12.5536 15.8614 10.7447V10.7311H19.4988C19.3764 13.0713 18.3691 15.2776 16.6809 16.9029L16.6783 16.9054ZM10.7319 15.6207C11.8271 15.6796 12.8506 15.9203 13.7948 16.3122L13.7333 16.29C12.977 18.0143 11.9125 19.1992 10.7319 19.4595V15.6207ZM10.7319 14.6441V10.7311H14.8874C14.8544 12.3515 14.5734 13.9573 14.0543 15.4927L14.0876 15.3808C13.0279 14.9446 11.9006 14.6957 10.7558 14.645L10.7328 14.6441H10.7319ZM10.7319 9.75452V5.84145C11.9075 5.78797 13.0649 5.53061 14.1524 5.08086L14.085 5.10562C14.5588 6.48765 14.8499 8.08054 14.8874 9.73659V9.75452H10.7319ZM10.7319 4.86489V1.0278C11.9125 1.28815 12.977 2.46788 13.7333 4.19735C12.8506 4.56441 11.8271 4.80428 10.7567 4.86404L10.7319 4.86489ZM13.1682 1.45035C14.1744 1.78521 15.1152 2.29116 15.9493 2.94592L15.9297 2.93055C15.5515 3.22762 15.1273 3.50761 14.68 3.7509L14.6322 3.7748C14.2717 2.92129 13.7746 2.13217 13.1605 1.43839L13.1682 1.44778V1.45035ZM9.75365 1.03036V4.86489C8.70067 4.81124 7.6647 4.57737 6.6908 4.17344L6.75226 4.19564C7.512 2.47129 8.57478 1.2873 9.75536 1.02694L9.75365 1.03036ZM5.85424 3.77224C5.39162 3.52308 4.95074 3.23553 4.53623 2.91262L4.55671 2.92799C5.36653 2.29241 6.27797 1.79831 7.2525 1.46656L7.31737 1.44693C6.71995 2.12235 6.23332 2.88817 5.87558 3.7159L5.85424 3.77224ZM9.75536 5.8406V9.75366H5.59986C5.63742 8.07968 5.92851 6.4868 6.43557 4.99294L6.40227 5.10476C7.46194 5.53885 8.58837 5.78747 9.73231 5.83974L9.75536 5.8406ZM9.75536 10.7302V14.6433C8.57973 14.6968 7.42235 14.9541 6.33484 15.4039L6.40227 15.3791C5.92851 13.9979 5.63742 12.4042 5.59986 10.7482V10.7302H9.75536ZM9.75536 15.6199V19.4569C8.57478 19.1966 7.51029 18.0169 6.75397 16.2874C7.63663 15.9203 8.66014 15.6813 9.7306 15.6216L9.75536 15.6199ZM7.32249 19.0344C6.31724 18.699 5.37666 18.1944 4.54135 17.5422L4.56183 17.5576C4.94 17.2605 5.36425 16.9805 5.81156 16.7373L5.85936 16.7134C6.21719 17.567 6.71421 18.3554 7.33018 19.0463L7.32249 19.0378V19.0344ZM14.633 16.7125C15.1281 16.9814 15.5524 17.2605 15.951 17.5721L15.9306 17.5568C15.1207 18.1923 14.2093 18.6864 13.2348 19.0182L13.1699 19.0378C13.7672 18.3626 14.2539 17.5971 14.6117 16.7697L14.633 16.7142V16.7125ZM19.4988 9.75452H15.8614C15.8347 7.98835 15.5299 6.23742 14.9583 4.56612L14.9933 4.68392C15.5962 4.36634 16.1671 3.99128 16.698 3.56395L16.6775 3.57931C18.3629 5.19803 19.3706 7.39637 19.4971 9.72976L19.4988 9.75452ZM3.80893 3.58017C4.30062 3.97967 4.85292 4.34588 5.43852 4.65746L5.49401 4.68477C4.97073 6.19315 4.65574 7.932 4.62586 9.74086V9.75452H0.98766C1.10998 7.41428 2.11729 5.20803 3.80551 3.58273L3.80893 3.58017ZM0.988514 10.7311H4.62586C4.65255 12.4972 4.95734 14.2482 5.529 15.9195L5.49401 15.8017C4.85292 16.1423 4.30148 16.5085 3.78929 16.9216L3.80978 16.9063C2.12441 15.2876 1.11663 13.0892 0.990221 10.7558L0.989367 10.7319L0.988514 10.7311Z" fill="black"/>
</svg>
